<?xml version="1.0" encoding="utf-8"?>
<svg width="1280.000000pt" height="901.000000pt" viewBox="0 0 1280.000000 901.000000" preserveAspectRatio="xMidYMid meet" xmlns="http://www.w3.org/2000/svg">
  <g class="layer" style="" transform="matrix(0.910571, 0, 0, 0.972017, 0.781057, 0.059217)">
    <title>Layer 1</title>
    <g fill="#ffc107" id="svg_1" transform="rotate(-179.966 644.55 451.049) translate(0 901) scale(0.1 -0.1)">
      <path d="m12095.109058,8945.160374c-1945.915959,-286.848917 -3542.361296,-830.666655 -5078.244964,-1730.057529c-646.322086,-378.48121 -1297.608244,-838.63468 -2074.981813,-1466.116685c-1178.470532,-951.18304 -1332.356743,-1069.707419 -1737.424963,-1337.632275c-871.690924,-574.693837 -1768.202205,-910.346909 -2941.708666,-1099.587514l-172.749682,-27.888089l5.956886,-28.884092c2.978443,-14.940048 5.956886,-37.848121 5.956886,-49.800159c0,-44.820143 10.920957,-48.804156 95.310169,-35.856115c43.683828,5.976019 85.382027,12.948041 94.317355,15.936051c12.906585,2.98801 17.870657,-4.980016 22.834728,-32.868105c3.971257,-20.916067 8.935328,-49.800159 11.913771,-63.744204l4.964071,-26.892086l-99.281426,-11.952038c-69.496999,-8.964029 -100.274241,-16.932054 -100.274241,-25.896083c0,-45.816146 23.827542,-163.344522 33.755685,-163.344522c10.920957,0 302.808351,49.800159 398.11852,68.72422c26.805985,4.980016 49.640713,8.964029 50.633527,7.968025c0,-0.996003 7.942514,-35.856115 16.877842,-76.692245c8.935328,-40.836131 125.094597,-569.713821 259.124523,-1175.283756c133.037111,-605.569935 245.225123,-1116.519568 249.19638,-1136.439632l6.9497,-34.860111l-118.144897,-22.908073c-64.532927,-11.952038 -203.526924,-37.848121 -309.758051,-56.772181c-106.231126,-17.928057 -194.591596,-35.856115 -197.570039,-37.848121c-1.985629,-2.98801 -0.992814,-29.880095 2.978443,-60.756194c7.942514,-63.744204 1.985629,-61.752197 122.116155,-38.844124c69.496999,12.948041 85.382027,12.948041 92.331727,1.992006c9.928143,-15.936051 22.834728,-96.612309 16.877842,-103.584331c-2.978443,-1.992006 -48.647899,-12.948041 -101.267055,-22.908073c-53.61197,-10.956035 -98.288612,-20.916067 -100.274241,-22.908073c-2.978443,-2.98801 14.892214,-130.476417 18.863471,-135.456433c1.985629,-0.996003 98.288612,13.944045 214.447881,32.868105c1678.848922,278.880891 3133.321819,871.502785 4572.902503,1864.517959c440.809534,303.780971 697.948428,499.993598 1532.905225,1168.311734c942.180737,753.97441 1196.341189,944.211018 1643.107608,1229.067928c968.986722,619.51398 2001.513558,1004.967212 3362.661915,1254.964011c230.332909,42.828137 596.681373,100.596321 805.172369,126.492404l97.295798,12.948041l-4.964071,34.860111c-2.978443,19.920064 -10.920957,78.684251 -16.877842,130.476417c-24.820357,203.184649 -35.741314,263.940844 -44.676642,262.94484c-4.964071,-0.996003 -30.777242,-3.984013 -58.576042,-7.968025l-49.640713,-5.976019l-157.857468,1218.111893c-86.374841,669.314139 -157.857468,1224.087912 -158.850282,1232.055937c0,7.968025 5.956886,14.940048 13.8994,16.932054c7.942514,0.996003 36.734128,4.980016 63.540113,7.968025l47.655085,6.972022l-6.9497,65.73621c-8.935328,87.64828 -11.913771,91.632293 -43.683828,85.656274c-26.805985,-5.976019 -27.798799,-3.984013 -37.726942,54.780175c-9.928143,63.744204 -5.956886,70.716226 36.734128,70.716226c14.892214,0 16.877842,5.976019 12.906585,42.828137c-5.956886,56.772181 -9.928143,66.732213 -24.820357,65.73621c-6.9497,0 -131.051483,-17.928057 -276.002366,-39.840127zm123.108969,-128.484411c2.978443,-15.936051 8.935328,-42.828137 11.913771,-59.760191c5.956886,-32.868105 13.8994,-29.880095 -124.101783,-54.780175c-121.12334,-21.91207 -116.159269,-23.904076 -127.080226,43.82414l-8.935328,59.760191l69.496999,11.952038c38.719756,5.976019 88.36047,14.940048 110.202383,18.92406c61.554484,11.952038 62.547299,11.952038 68.504184,-19.920064zm-367.341278,-56.772181c1.985629,-9.960032 6.9497,-35.856115 10.920957,-58.764188l5.956886,-40.836131l-115.166455,-22.908073c-94.317355,-18.92406 -118.144897,-20.916067 -124.101783,-9.960032c-8.935328,14.940048 -23.827542,99.600318 -17.870657,104.580334c4.964071,4.980016 187.641896,42.828137 213.455067,43.82414c12.906585,0.996003 23.827542,-5.976019 26.805985,-15.936051zm-355.427507,-115.536369c5.956886,-30.876099 9.928143,-56.772181 7.942514,-56.772181c-0.992814,0 -54.604785,-10.956035 -119.137712,-24.90008c-63.540113,-13.944045 -117.152083,-23.904076 -118.144897,-22.908073c-6.9497,7.968025 -24.820357,111.552357 -19.856285,115.536369c7.942514,7.968025 205.512553,50.796162 223.38321,48.804156c8.935328,-0.996003 17.870657,-22.908073 25.813171,-59.760191zm-365.355649,-67.728216c6.9497,-27.888089 11.913771,-53.784172 11.913771,-58.764188c0,-9.960032 -226.361652,-64.740207 -234.304166,-56.772181c-5.956886,5.976019 -33.755685,109.56035 -30.777242,112.54836c4.964071,3.984013 211.469438,52.788169 226.361652,52.788169c10.920957,0.996003 18.863471,-14.940048 26.805985,-49.800159zm-359.398764,-93.624299c7.942514,-30.876099 13.8994,-57.768185 11.913771,-58.764188c-5.956886,-3.984013 -214.447881,-55.776178 -225.368838,-55.776178c-9.928143,0 -46.66227,106.572341 -38.719756,114.540366c4.964071,4.980016 230.332909,61.752197 234.304166,58.764188c1.985629,-0.996003 9.928143,-27.888089 17.870657,-58.764188zm970.972351,-111.552357c16.877842,-113.544363 104.245498,-680.270174 277.987994,-1795.793739c73.468256,-474.097515 80.417955,-533.857706 66.518556,-539.833725c-8.935328,-3.984013 -82.403584,-18.92406 -164.807168,-32.868105c-461.658633,-81.672261 -1056.354378,-227.088726 -1510.070497,-371.509187l-90.346098,-28.884092l-15.885028,55.776178c-8.935328,30.876099 -101.267055,358.561146 -205.512553,728.078327c-394.147263,1393.408453 -445.773605,1578.665045 -441.802348,1581.653055c1.985629,1.992006 81.41077,28.884092 175.728125,58.764188c515.270603,163.344522 1088.124434,307.764984 1621.265694,410.353311c115.166455,21.91207 217.426324,41.832134 228.347281,43.82414c10.920957,2.98801 24.820357,4.980016 30.777242,5.976019c5.956886,0.996003 17.870657,-48.804156 27.798799,-115.536369zm-1334.342372,34.860111c5.956886,-23.904076 12.906585,-49.800159 15.885028,-58.764188c2.978443,-11.952038 -18.863471,-21.91207 -108.216755,-46.81215c-62.547299,-17.928057 -116.159269,-31.872102 -119.137712,-31.872102c-6.9497,0 -40.705385,109.56035 -34.748499,114.540366c4.964071,4.980016 208.490996,62.748201 223.38321,63.744204c6.9497,0.996003 16.877842,-17.928057 22.834728,-40.836131zm-353.441878,-113.544363c9.928143,-30.876099 15.885028,-57.768185 13.8994,-59.760191c-5.956886,-4.980016 -229.340095,-73.704236 -232.318538,-70.716226c-7.942514,10.956035 -34.748499,109.56035 -29.784428,113.544363c4.964071,4.980016 210.476624,70.716226 225.368838,72.708232c2.978443,0 12.906585,-24.90008 22.834728,-55.776178zm-357.413135,-100.596321c8.935328,-25.896083 15.885028,-51.792166 15.885028,-58.764188c0,-14.940048 -217.426324,-88.644283 -228.347281,-77.688248c-7.942514,9.960032 -41.698199,105.576337 -36.734128,108.564347c4.964071,3.984013 210.476624,71.712229 222.390395,73.704236c5.956886,0 17.870657,-19.920064 26.805985,-45.816146zm-348.477807,-128.484411c9.928143,-30.876099 16.877842,-56.772181 14.892214,-58.764188c-2.978443,-2.98801 -204.519739,-73.704236 -220.404767,-77.688248c-8.935328,-1.992006 -47.655085,92.628296 -42.691013,106.572341c2.978443,7.968025 198.562853,83.664267 220.404767,84.660271c5.956886,0.996003 17.870657,-23.904076 27.798799,-54.780175zm-349.470621,-128.484411c9.928143,-26.892086 14.892214,-51.792166 10.920957,-55.776178c-3.971257,-3.984013 -53.61197,-24.90008 -111.195198,-47.808153c-77.439513,-29.880095 -105.238312,-36.852118 -111.195198,-27.888089c-12.906585,19.920064 -40.705385,96.612309 -36.734128,100.596321c10.920957,10.956035 204.519739,84.660271 216.43351,82.668264c6.9497,-0.996003 21.841914,-23.904076 31.770056,-51.792166zm-341.528107,-140.436449l20.8491,-50.796162l-114.17364,-47.808153c-62.547299,-25.896083 -114.17364,-45.816146 -116.159269,-43.82414c-4.964071,8.964029 -35.741314,84.660271 -37.726942,97.608312c-2.978443,14.940048 210.476624,113.544363 221.397581,102.588328c2.978443,-3.984013 14.892214,-29.880095 25.813171,-57.768185zm499.385575,-531.8657c72.475441,-205.176656 161.828725,-461.149474 198.562853,-567.721814c37.726942,-106.572341 112.188012,-321.709028 166.792796,-478.081528c248.203566,-708.158263 279.973623,-800.786559 276.99518,-802.778566c-0.992814,-1.992006 -71.482627,-31.872102 -155.87184,-66.732213c-384.21912,-161.352516 -772.409498,-357.565143 -1123.865748,-570.709824c-77.439513,-46.81215 -143.958068,-85.656274 -147.929325,-86.652277c-4.964071,-0.996003 -276.002366,480.073534 -602.638259,1069.707419l-594.695745,1072.695428l199.555667,114.540366c482.507733,275.892882 944.166366,502.981607 1445.537569,710.15027l173.742496,71.712229l16.877842,-46.81215c8.935328,-24.90008 74.46107,-214.140684 146.936511,-419.31734zm-844.884939,392.425254c12.906585,-29.880095 21.841914,-55.776178 19.856285,-57.768185c-8.935328,-7.968025 -207.498181,-95.616306 -215.440695,-95.616306c-10.920957,0 -54.604785,100.596321 -46.66227,107.568344c4.964071,5.976019 205.512553,100.596321 214.447881,100.596321c2.978443,0.996003 15.885028,-23.904076 27.798799,-54.780175zm-334.578407,-157.368503l26.805985,-53.784172l-111.195198,-53.784172l-111.195198,-54.780175l-27.798799,53.784172c-15.885028,29.880095 -26.805985,56.772181 -24.820357,58.764188c5.956886,4.980016 210.476624,102.588328 216.43351,103.584331c2.978443,0 17.870657,-23.904076 31.770056,-53.784172zm-334.578407,-165.336528c13.8994,-26.892086 24.820357,-50.796162 24.820357,-53.784172c0,-4.980016 -210.476624,-116.532372 -213.455067,-112.54836c-34.748499,55.776178 -54.604785,100.596321 -48.647899,106.572341c10.920957,10.956035 195.58441,109.56035 204.519739,109.56035c3.971257,0 18.863471,-21.91207 32.762871,-49.800159zm-302.808351,-224.100716c0,-11.952038 -198.562853,-125.496401 -208.490996,-119.520382c-10.920957,6.972022 -62.547299,95.616306 -57.583227,99.600318c0.992814,0.996003 49.640713,29.880095 107.223941,62.748201l104.245498,59.760191l26.805985,-45.816146c14.892214,-25.896083 27.798799,-50.796162 27.798799,-56.772181zm-343.513736,-138.444442c13.8994,-24.90008 25.813171,-46.81215 25.813171,-48.804156c0,-10.956035 -198.562853,-127.488407 -208.490996,-121.512388c-16.877842,10.956035 -63.540113,98.604315 -54.604785,101.592325c5.956886,1.992006 52.619156,29.880095 104.245498,61.752197c51.626342,31.872102 97.295798,56.772181 101.267055,54.780175c2.978443,-1.992006 17.870657,-23.904076 31.770056,-47.808153zm-318.693379,-190.236608c14.892214,-24.90008 26.805985,-49.800159 26.805985,-53.784172c0,-8.964029 -183.670639,-130.476417 -196.577224,-130.476417c-9.928143,0.996003 -65.525741,85.656274 -62.547299,95.616306c2.978443,8.964029 188.63471,132.468423 199.555667,133.464427c2.978443,0 16.877842,-19.920064 32.762871,-44.820143zm-304.793979,-212.148678l30.777242,-47.808153l-30.777242,-20.916067c-16.877842,-10.956035 -62.547299,-43.82414 -101.267055,-70.716226l-71.482627,-50.796162l-34.748499,51.792166l-33.755685,52.788169l95.310169,65.73621c52.619156,36.852118 100.274241,66.732213 105.238312,66.732213c5.956886,0.996003 23.827542,-20.916067 40.705385,-46.81215zm875.662181,-1131.459616c356.420321,-565.729808 649.300529,-1035.84331 652.278972,-1043.811336c3.971257,-9.960032 -36.734128,-44.820143 -131.051483,-112.54836c-272.031109,-196.212627 -535.126889,-398.401273 -1025.577135,-790.826527c-144.950883,-115.536369 -265.081409,-210.156672 -268.059851,-210.156672c-5.956886,0 -1541.840553,1909.338102 -1546.804624,1922.286143c-5.956886,15.936051 757.517284,617.521974 1132.801076,891.422849c175.728125,127.488407 526.19156,372.50519 534.134074,373.501194c2.978443,0 296.851465,-463.14148 652.278972,-1029.867291zm-1179.463346,915.326925l29.784428,-43.82414l-71.482627,-53.784172c-90.346098,-65.73621 -127.080226,-90.63629 -130.058669,-85.656274c-1.985629,1.992006 -17.870657,22.908073 -35.741314,46.81215c-19.856285,24.90008 -29.784428,46.81215 -24.820357,51.792166c26.805985,26.892086 188.63471,137.448439 194.591596,133.464427c3.971257,-2.98801 20.8491,-24.90008 37.726942,-48.804156zm-299.829908,-218.124697l31.770056,-44.820143l-98.288612,-74.700239l-99.281426,-75.696242l-36.734128,50.796162c-34.748499,47.808153 -35.741314,50.796162 -17.870657,63.744204c10.920957,6.972022 54.604785,39.840127 98.288612,72.708232c43.683828,32.868105 81.41077,58.764188 84.389212,56.772181c2.978443,-1.992006 19.856285,-23.904076 37.726942,-48.804156zm-297.844279,-220.116703c16.877842,-23.904076 31.770056,-45.816146 31.770056,-48.804156c0,-6.972022 -177.713753,-145.416465 -187.641896,-145.416465c-4.964071,0 -24.820357,19.920064 -44.676642,43.82414l-34.748499,43.82414l96.302984,75.696242c52.619156,41.832134 98.288612,75.696242 101.267055,75.696242c2.978443,-0.996003 19.856285,-20.916067 37.726942,-44.820143zm7175.068691,-1.992006c3.971257,-26.892086 6.9497,-54.780175 7.942514,-62.748201c1.985629,-13.944045 -13.8994,-17.928057 -192.605967,-43.82414l-46.66227,-6.972022l-9.928143,57.768185c-4.964071,31.872102 -7.942514,59.760191 -5.956886,61.752197c2.978443,2.98801 54.604785,11.952038 116.159269,21.91207c60.56167,8.964029 114.17364,16.932054 118.144897,17.928057c3.971257,0 9.928143,-19.920064 12.906585,-45.816146zm-364.362835,-69.720223c5.956886,-31.872102 8.935328,-58.764188 6.9497,-60.756194c-1.985629,-1.992006 -221.397581,-41.832134 -234.304166,-41.832134c-2.978443,0 -10.920957,26.892086 -15.885028,59.760191l-9.928143,59.760191l30.777242,4.980016c108.216755,20.916067 181.68501,32.868105 196.577224,33.864108c11.913771,0.996003 17.870657,-12.948041 25.813171,-55.776178zm-371.312535,-29.880095c2.978443,-15.936051 7.942514,-43.82414 10.920957,-62.748201l5.956886,-35.856115l-116.159269,-21.91207c-63.540113,-11.952038 -119.137712,-19.920064 -122.116155,-16.932054c-2.978443,3.984013 -10.920957,30.876099 -15.885028,59.760191l-10.920957,53.784172l49.640713,10.956035c27.798799,4.980016 79.425141,15.936051 115.166455,23.904076c35.741314,7.968025 67.51137,13.944045 71.482627,14.940048c2.978443,0.996003 8.935328,-10.956035 11.913771,-25.896083zm-356.420321,-113.544363l11.913771,-55.776178l-115.166455,-26.892086c-63.540113,-13.944045 -118.144897,-25.896083 -121.12334,-25.896083c-7.942514,0 -31.770056,109.56035 -25.813171,116.532372c8.935328,7.968025 199.555667,51.792166 220.404767,49.800159c14.892214,-1.992006 21.841914,-13.944045 29.784428,-57.768185zm-6349.047223,-49.800159c7.942514,-13.944045 -8.935328,-30.876099 -86.374841,-93.624299l-95.310169,-76.692245l-18.863471,23.904076c-9.928143,11.952038 -26.805985,34.860111 -37.726942,48.804156l-18.863471,25.896083l96.302984,76.692245l95.310169,76.692245l27.798799,-32.868105c15.885028,-17.928057 32.762871,-39.840127 37.726942,-48.804156zm5985.677202,-24.90008c6.9497,-30.876099 8.935328,-58.764188 3.971257,-63.744204c-8.935328,-7.968025 -222.390395,-62.748201 -226.361652,-57.768185c-1.985629,1.992006 -9.928143,27.888089 -17.870657,58.764188l-13.8994,56.772181l110.202383,29.880095c60.56167,15.936051 115.166455,29.880095 121.12334,30.876099c5.956886,0.996003 15.885028,-23.904076 22.834728,-54.780175zm-366.348464,-67.728216c4.964071,-12.948041 11.913771,-38.844124 14.892214,-57.768185l6.9497,-33.864108l-108.216755,-31.872102c-58.576042,-17.928057 -112.188012,-31.872102 -117.152083,-31.872102c-5.956886,0 -16.877842,24.90008 -25.813171,55.776178c-18.863471,63.744204 -30.777242,53.784172 105.238312,95.616306c110.202383,32.868105 112.188012,32.868105 124.101783,3.984013zm-5933.058046,-109.56035l35.741314,-43.82414l-95.310169,-77.688248l-96.302984,-77.688248l-37.726942,44.820143c-20.8491,23.904076 -36.734128,46.81215 -35.741314,49.800159c3.971257,11.952038 170.764054,146.412468 181.68501,147.408471c6.9497,0.996003 27.798799,-18.92406 47.655085,-42.828137zm5584.580239,-25.896083c6.9497,-26.892086 11.913771,-52.788169 11.913771,-56.772181c-0.992814,-5.976019 -96.302984,-41.832134 -209.48381,-77.688248c-11.913771,-3.984013 -19.856285,8.964029 -34.748499,49.800159c-10.920957,33.864108 -14.892214,58.764188 -8.935328,63.744204c10.920957,10.956035 190.620339,69.720223 213.455067,70.716226c9.928143,0 18.863471,-15.936051 27.798799,-49.800159zm-352.449064,-116.532372c8.935328,-26.892086 16.877842,-51.792166 17.870657,-55.776178c1.985629,-4.980016 -47.655085,-27.888089 -109.209569,-51.792166c-125.094597,-47.808153 -116.159269,-49.800159 -145.943697,33.864108l-12.906585,38.844124l100.274241,39.840127c55.597599,21.91207 109.209569,40.836131 118.144897,40.836131c10.920957,0.996003 20.8491,-13.944045 31.770056,-45.816146zm-5526.004197,-84.660271c17.870657,-22.908073 31.770056,-44.820143 31.770056,-48.804156c0,-3.984013 -41.698199,-40.836131 -93.324541,-82.668264l-94.317355,-75.696242l-36.734128,50.796162c-19.856285,26.892086 -34.748499,51.792166 -32.762871,52.788169c18.863471,18.92406 182.677825,145.416465 187.641896,145.416465c2.978443,0 19.856285,-18.92406 37.726942,-41.832134zm5182.490462,-53.784172c12.906585,-30.876099 21.841914,-56.772181 19.856285,-57.768185c-1.985629,-0.996003 -51.626342,-22.908073 -112.188012,-48.804156c-80.417955,-33.864108 -110.202383,-42.828137 -116.159269,-33.864108c-13.8994,20.916067 -40.705385,96.612309 -36.734128,101.592325c4.964071,4.980016 209.48381,93.624299 217.426324,94.620302c2.978443,0 14.892214,-24.90008 27.798799,-55.776178zm-339.542479,-152.388487l22.834728,-51.792166l-104.245498,-49.800159c-57.583227,-26.892086 -108.216755,-48.804156 -112.188012,-48.804156c-3.971257,0 -18.863471,23.904076 -32.762871,52.788169l-25.813171,51.792166l105.238312,51.792166c58.576042,27.888089 110.202383,49.800159 115.166455,48.804156c4.964071,-0.996003 18.863471,-25.896083 31.770056,-54.780175zm-5099.094063,-72.708232c0,-7.968025 -177.713753,-147.408471 -188.63471,-147.408471c-3.971257,0 -23.827542,19.920064 -43.683828,43.82414l-35.741314,44.820143l96.302984,75.696242l97.295798,76.692245l36.734128,-43.82414c20.8491,-22.908073 37.726942,-45.816146 37.726942,-49.800159zm4765.508471,-86.652277c12.906585,-27.888089 21.841914,-52.788169 18.863471,-53.784172c-14.892214,-12.948041 -197.570039,-106.572341 -206.505367,-106.572341c-13.8994,0 -66.518556,102.588328 -54.604785,106.572341c4.964071,1.992006 53.61197,27.888089 108.216755,56.772181c54.604785,29.880095 101.267055,51.792166 104.245498,50.796162c2.978443,-1.992006 16.877842,-25.896083 29.784428,-53.784172zm-3923.601974,-1010.943231c400.104149,-538.837722 728.72567,-987.039154 731.704113,-995.00718c3.971257,-9.960032 -70.489813,-71.712229 -245.225123,-203.184649c-432.867019,-325.693041 -820.064583,-590.629888 -1203.290889,-821.702626c-160.835911,-96.612309 -179.699382,-105.576337 -189.627525,-89.640286c-34.748499,50.796162 -1236.05376,2082.642656 -1236.05376,2090.610681c0,3.984013 57.583227,41.832134 127.080226,82.668264c279.973623,165.336528 676.106514,445.213423 1078.196291,758.954426c109.209569,86.652277 202.53411,157.368503 205.512553,157.368503c2.978443,0 332.592779,-441.22941 731.704113,-980.067132zm-1170.528018,918.314935c16.877842,-22.908073 30.777242,-44.820143 30.777242,-48.804156c0,-5.976019 -183.670639,-148.404474 -191.613153,-148.404474c-7.942514,0 -67.51137,90.63629 -64.532927,98.604315c3.971257,10.956035 177.713753,140.436449 187.641896,140.436449c3.971257,0 20.8491,-18.92406 37.726942,-41.832134zm4769.479728,-89.640286l26.805985,-45.816146l-102.259869,-58.764188c-55.597599,-31.872102 -105.238312,-57.768185 -109.209569,-57.768185c-3.971257,0 -20.8491,22.908073 -36.734128,50.796162l-28.791614,49.800159l106.231126,60.756194c58.576042,33.864108 109.209569,58.764188 112.188012,54.780175c2.978443,-3.984013 17.870657,-27.888089 31.770056,-53.784172zm-5068.316821,-131.47242c17.870657,-23.904076 31.770056,-46.81215 31.770056,-49.800159c0,-7.968025 -184.663453,-135.456433 -196.577224,-135.456433c-8.935328,0 -66.518556,78.684251 -66.518556,91.632293c0,6.972022 184.663453,137.448439 194.591596,137.448439c2.978443,0 19.856285,-19.920064 36.734128,-43.82414zm4769.479728,-106.572341c-3.971257,-2.98801 -50.633527,-32.868105 -104.245498,-66.732213l-96.302984,-61.752197l-33.755685,51.792166c-18.863471,28.884092 -32.762871,53.784172 -31.770056,53.784172c0,0.996003 47.655085,30.876099 105.238312,67.728216l104.245498,64.740207l31.770056,-51.792166c16.877842,-28.884092 28.791614,-54.780175 24.820357,-57.768185zm-5075.266521,-102.588328c15.885028,-24.90008 29.784428,-46.81215 29.784428,-50.796162c0,-4.980016 -193.598782,-134.46043 -202.53411,-134.46043c-5.956886,0 -68.504184,99.600318 -64.532927,103.584331c13.8994,11.952038 193.598782,125.496401 199.555667,125.496401c3.971257,0 20.8491,-19.920064 37.726942,-43.82414zm4741.680928,-46.81215l32.762871,-45.816146l-102.259869,-70.716226l-102.259869,-70.716226l-30.777242,44.820143c-17.870657,23.904076 -31.770056,48.804156 -31.770056,53.784172c0,10.956035 180.692196,139.440446 192.605967,136.452436c3.971257,-1.992006 22.834728,-22.908073 41.698199,-47.808153zm-5055.410236,-152.388487c13.8994,-24.90008 25.813171,-47.808153 25.813171,-52.788169c0,-7.968025 -191.613153,-122.508392 -205.512553,-122.508392c-11.913771,0 -66.518556,103.584331 -56.590413,106.572341c4.964071,1.992006 49.640713,27.888089 98.288612,57.768185c49.640713,29.880095 94.317355,53.784172 101.267055,54.780175c5.956886,0 22.834728,-19.920064 36.734128,-43.82414zm4752.601885,-61.752197c16.877842,-24.90008 28.791614,-46.81215 26.805985,-47.808153c-0.992814,-1.992006 -45.669456,-34.860111 -98.288612,-73.704236l-95.310169,-69.720223l-36.734128,49.800159c-35.741314,46.81215 -36.734128,50.796162 -18.863471,62.748201c9.928143,6.972022 53.61197,39.840127 97.295798,72.708232c43.683828,31.872102 82.403584,56.772181 86.374841,54.780175c3.971257,-1.992006 21.841914,-23.904076 38.719756,-48.804156zm-5069.309636,-133.464427l24.820357,-48.804156l-110.202383,-55.776178c-60.56167,-30.876099 -111.195198,-54.780175 -113.180826,-52.788169c-0.992814,0.996003 -13.8994,26.892086 -28.791614,54.780175l-25.813171,52.788169l106.231126,53.784172c59.568856,29.880095 110.202383,51.792166 115.166455,48.804156c3.971257,-1.992006 17.870657,-25.896083 31.770056,-52.788169zm4769.479728,-85.656274c28.791614,-37.848121 31.770056,-46.81215 19.856285,-57.768185c-29.784428,-27.888089 -170.764054,-135.456433 -177.713753,-135.456433c-8.935328,0 -69.496999,76.692245 -69.496999,88.644283c0,9.960032 175.728125,150.396481 187.641896,150.396481c2.978443,0 20.8491,-20.916067 39.712571,-45.816146zm-5107.036578,-70.716226c10.920957,-25.896083 20.8491,-50.796162 22.834728,-54.780175c2.978443,-5.976019 -159.843097,-87.64828 -204.519739,-101.592325c-14.892214,-4.980016 -22.834728,4.980016 -40.705385,48.804156c-12.906585,30.876099 -21.841914,56.772181 -19.856285,58.764188c12.906585,8.964029 204.519739,94.620302 212.462253,94.620302c5.956886,0.996003 18.863471,-19.920064 29.784428,-45.816146zm-335.571221,-157.368503c10.920957,-29.880095 17.870657,-56.772181 13.8994,-58.764188c-12.906585,-7.968025 -210.476624,-85.656274 -217.426324,-85.656274c-8.935328,0 -42.691013,88.644283 -40.705385,104.580334c0.992814,8.964029 188.63471,91.632293 212.462253,93.624299c5.956886,0.996003 19.856285,-23.904076 31.770056,-53.784172zm5149.727591,-0.996003c20.8491,-24.90008 35.741314,-46.81215 34.748499,-48.804156c-1.985629,-0.996003 -45.669456,-36.852118 -97.295798,-78.684251l-92.331727,-75.696242l-36.734128,45.816146c-19.856285,25.896083 -34.748499,49.800159 -33.755685,52.788169c2.978443,6.972022 174.735311,149.400477 181.68501,149.400477c2.978443,0.996003 22.834728,-19.920064 43.683828,-44.820143zm-4105.286985,-1122.495587c294.865837,-601.585923 537.112517,-1097.595508 537.112517,-1101.57952c0,-13.944045 -435.845462,-213.144681 -709.862199,-324.697038c-312.736493,-127.488407 -687.027471,-257.964824 -1002.742407,-349.597117c-103.252684,-29.880095 -196.577224,-56.772181 -205.512553,-59.760191c-12.906585,-3.984013 -20.8491,10.956035 -41.698199,77.688248c-49.640713,167.328535 -651.286158,2277.85928 -651.286158,2286.823308c0,5.976019 23.827542,16.932054 52.619156,24.90008c27.798799,7.968025 126.087412,35.856115 218.419138,60.756194c384.21912,107.568344 791.272969,259.956831 1178.470532,442.225413c46.66227,21.91207 85.382027,38.844124 85.382027,37.848121c0.992814,0 243.239495,-493.021576 539.098146,-1094.607498zm-1390.932785,990.027164l19.856285,-59.760191l-117.152083,-38.844124l-118.144897,-39.840127l-18.863471,57.768185l-19.856285,57.768185l110.202383,39.840127c61.554484,21.91207 114.17364,39.840127 118.144897,40.836131c2.978443,0 14.892214,-25.896083 25.813171,-57.768185zm5231.138361,-131.47242c11.913771,-14.940048 2.978443,-24.90008 -76.446698,-92.628296c-50.633527,-41.832134 -94.317355,-75.696242 -98.288612,-75.696242c-3.971257,0 -22.834728,19.920064 -43.683828,43.82414l-36.734128,44.820143l96.302984,78.684251l95.310169,79.680255l25.813171,-31.872102c12.906585,-16.932054 30.777242,-37.848121 37.726942,-46.81215zm-5587.558682,28.884092c6.9497,-23.904076 13.8994,-49.800159 16.877842,-58.764188c3.971257,-12.948041 -16.877842,-22.908073 -111.195198,-48.804156c-63.540113,-16.932054 -118.144897,-27.888089 -123.108969,-22.908073c-7.942514,8.964029 -32.762871,103.584331 -27.798799,107.568344c4.964071,5.976019 201.541296,62.748201 217.426324,63.744204c9.928143,0.996003 19.856285,-13.944045 27.798799,-40.836131zm-358.40595,-96.612309c23.827542,-76.692245 23.827542,-75.696242 -99.281426,-104.580334c-61.554484,-13.944045 -115.166455,-25.896083 -118.144897,-25.896083c-7.942514,0 -31.770056,109.56035 -25.813171,115.536369c6.9497,6.972022 186.649082,51.792166 211.469438,52.788169c15.885028,0.996003 23.827542,-7.968025 31.770056,-37.848121zm-357.413135,-97.608312c5.956886,-30.876099 9.928143,-57.768185 7.942514,-59.760191c-3.971257,-4.980016 -205.512553,-42.828137 -225.368838,-42.828137c-12.906585,0 -19.856285,14.940048 -26.805985,57.768185c-5.956886,30.876099 -8.935328,57.768185 -7.942514,58.764188c2.978443,2.98801 200.548481,40.836131 219.411952,41.832134c16.877842,0.996003 22.834728,-7.968025 32.762871,-55.776178zm6018.440073,-74.700239c7.942514,-13.944045 -5.956886,-29.880095 -81.41077,-91.632293c-50.633527,-41.832134 -95.310169,-74.700239 -99.281426,-73.704236c-2.978443,1.992006 -21.841914,22.908073 -40.705385,46.81215l-34.748499,43.82414l95.310169,78.684251l95.310169,79.680255l27.798799,-33.864108c15.885028,-17.928057 32.762871,-40.836131 37.726942,-49.800159zm-311.743679,-203.184649c31.770056,-37.848121 34.748499,-46.81215 22.834728,-57.768185c-7.942514,-6.972022 -50.633527,-42.828137 -95.310169,-78.684251l-80.417955,-66.732213l-39.712571,47.808153l-40.705385,47.808153l91.338912,76.692245c50.633527,41.832134 94.317355,75.696242 98.288612,75.696242c3.971257,0.996003 22.834728,-18.92406 43.683828,-44.820143zm-274.016737,-254.976815l19.856285,-25.896083l-95.310169,-75.696242c-52.619156,-41.832134 -98.288612,-73.704236 -102.259869,-71.712229c-2.978443,1.992006 -20.8491,23.904076 -37.726942,48.804156l-32.762871,44.820143l97.295798,74.700239l96.302984,75.696242l17.870657,-21.91207c9.928143,-11.952038 25.813171,-33.864108 36.734128,-48.804156zm-309.758051,-202.188646c16.877842,-23.904076 31.770056,-47.808153 31.770056,-51.792166c-0.992814,-3.984013 -43.683828,-39.840127 -97.295798,-79.680255l-96.302984,-70.716226l-32.762871,45.816146c-17.870657,24.90008 -30.777242,49.800159 -28.791614,54.780175c2.978443,8.964029 176.720939,145.416465 185.656267,145.416465c2.978443,0 19.856285,-19.920064 37.726942,-43.82414zm-296.851465,-225.096719c18.863471,-26.892086 31.770056,-50.796162 29.784428,-52.788169c-14.892214,-13.944045 -191.613153,-135.456433 -196.577224,-135.456433c-8.935328,0.996003 -64.532927,85.656274 -62.547299,95.616306c1.985629,7.968025 179.699382,140.436449 190.620339,142.428455c2.978443,0 19.856285,-21.91207 38.719756,-49.800159zm-307.772422,-206.172659c16.877842,-26.892086 30.777242,-51.792166 30.777242,-54.780175c0,-6.972022 -169.771239,-123.504395 -191.613153,-132.468423c-7.942514,-2.98801 -26.805985,15.936051 -45.669456,47.808153c-17.870657,28.884092 -28.791614,53.784172 -23.827542,54.780175c3.971257,1.992006 50.633527,31.872102 102.259869,66.732213c51.626342,35.856115 95.310169,64.740207 95.310169,64.740207c0.992814,0.996003 15.885028,-20.916067 32.762871,-46.81215zm-307.772422,-208.164665c22.834728,-36.852118 27.798799,-49.800159 17.870657,-58.764188c-17.870657,-15.936051 -197.570039,-125.496401 -200.548481,-121.512388c-21.841914,27.888089 -55.597599,100.596321 -48.647899,107.568344c11.913771,11.952038 185.656267,118.524379 193.598782,119.520382c3.971257,0 20.8491,-20.916067 37.726942,-46.81215zm-318.693379,-194.220621l30.777242,-51.792166l-101.267055,-57.768185c-55.597599,-31.872102 -105.238312,-57.768185 -111.195198,-57.768185c-12.906585,0 -67.51137,103.584331 -57.583227,107.568344c4.964071,0.996003 50.633527,26.892086 102.259869,56.772181c51.626342,28.884092 97.295798,53.784172 101.267055,53.784172c2.978443,0.996003 19.856285,-21.91207 35.741314,-50.796162zm-323.65745,-180.276576l25.813171,-52.788169l-109.209569,-57.768185c-59.568856,-31.872102 -110.202383,-56.772181 -111.195198,-54.780175c-1.985629,1.992006 -14.892214,26.892086 -29.784428,55.776178l-25.813171,51.792166l102.259869,53.784172c55.597599,29.880095 106.231126,54.780175 111.195198,55.776178c5.956886,0 22.834728,-22.908073 36.734128,-51.792166zm-333.585593,-163.344522c9.928143,-26.892086 18.863471,-50.796162 18.863471,-55.776178c0,-5.976019 -198.562853,-105.576337 -214.447881,-106.572341c-5.956886,0 -52.619156,109.56035 -47.655085,112.54836c15.885028,10.956035 204.519739,96.612309 213.455067,96.612309c5.956886,0 19.856285,-20.916067 29.784428,-46.81215zm-335.571221,-158.364506c12.906585,-30.876099 21.841914,-57.768185 19.856285,-58.764188c-3.971257,-2.98801 -217.426324,-94.620302 -221.397581,-94.620302c-8.935328,0 -46.66227,113.544363 -38.719756,116.532372c4.964071,1.992006 53.61197,22.908073 108.216755,46.81215c54.604785,24.90008 101.267055,44.820143 104.245498,44.820143c2.978443,0.996003 14.892214,-23.904076 27.798799,-54.780175zm-344.50655,-140.436449c10.920957,-24.90008 17.870657,-51.792166 14.892214,-57.768185c-1.985629,-5.976019 -45.669456,-27.888089 -97.295798,-47.808153c-50.633527,-18.92406 -99.281426,-37.848121 -108.216755,-41.832134c-11.913771,-3.984013 -20.8491,6.972022 -37.726942,51.792166c-11.913771,31.872102 -17.870657,58.764188 -13.8994,60.756194c138.993997,56.772181 198.562853,79.680255 209.48381,80.676258c6.9497,0.996003 21.841914,-19.920064 32.762871,-45.816146zm-344.50655,-138.444442c9.928143,-30.876099 15.885028,-56.772181 13.8994,-58.764188c-2.978443,-2.98801 -226.361652,-82.668264 -226.361652,-80.676258c0,0.996003 -8.935328,25.896083 -19.856285,54.780175c-10.920957,29.880095 -16.877842,56.772181 -13.8994,59.760191c5.956886,6.972022 203.526924,78.684251 218.419138,79.680255c5.956886,0.996003 17.870657,-23.904076 27.798799,-54.780175zm-356.420321,-104.580334c28.791614,-83.664267 37.726942,-72.708232 -88.36047,-112.54836c-62.547299,-19.920064 -116.159269,-35.856115 -119.137712,-35.856115c-5.956886,0 -39.712571,109.56035 -33.755685,113.544363c7.942514,7.968025 212.462253,73.704236 220.404767,71.712229c4.964071,-0.996003 14.892214,-17.928057 20.8491,-36.852118zm-348.477807,-124.500398c9.928143,-30.876099 14.892214,-57.768185 11.913771,-60.756194c-5.956886,-5.976019 -227.354467,-72.708232 -230.332909,-69.720223c-6.9497,7.968025 -32.762871,111.552357 -27.798799,115.536369c3.971257,4.980016 205.512553,67.728216 223.38321,69.720223c2.978443,0.996003 12.906585,-23.904076 22.834728,-54.780175zm-356.420321,-104.580334c7.942514,-29.880095 10.920957,-56.772181 6.9497,-59.760191c-11.913771,-10.956035 -211.469438,-60.756194 -224.376024,-55.776178c-9.928143,3.984013 -40.705385,106.572341 -33.755685,111.552357c6.9497,3.984013 231.325724,61.752197 234.304166,59.760191c1.985629,-1.992006 9.928143,-26.892086 16.877842,-55.776178zm-362.377207,-80.676258c5.956886,-23.904076 12.906585,-49.800159 15.885028,-58.764188c2.978443,-11.952038 -17.870657,-20.916067 -109.209569,-41.832134c-61.554484,-14.940048 -117.152083,-26.892086 -122.116155,-26.892086c-9.928143,0 -37.726942,107.568344 -30.777242,114.540366c4.964071,5.976019 196.577224,52.788169 218.419138,53.784172c11.913771,0.996003 19.856285,-10.956035 27.798799,-40.836131zm-358.40595,-94.620302c5.956886,-30.876099 7.942514,-59.760191 3.971257,-63.744204c-14.892214,-11.952038 -223.38321,-50.796162 -231.325724,-42.828137c-3.971257,4.980016 -11.913771,31.872102 -16.877842,59.760191l-9.928143,51.792166l110.202383,24.90008c60.56167,13.944045 115.166455,25.896083 121.12334,25.896083c5.956886,0.996003 15.885028,-24.90008 22.834728,-55.776178z" id="svg_2" style="stroke-miterlimit: 6; paint-order: fill; stroke-width: 50px; fill: rgb(23, 22, 20); stroke: rgb(0, 0, 0);"/>
    </g>
  </g>
  <polygon style="fill: rgb(255, 255, 255); stroke: rgb(255, 255, 255);" points="1015.033 67.204 947.593 89.684 892.055 114.809 840.484 135.966 868.253 195.471 905.278 276.134 938.337 344.895 1028.256 309.192 1077.182 292.002 1050.735 199.438 1029.578 124.065"/>
  <polygon style="stroke: rgb(255, 255, 255); fill: rgb(255, 255, 255);" points="783.623 167.702 738.664 199.438 706.928 223.24 667.258 254.977 639.489 277.456 667.258 319.771 708.25 380.599 758.499 450.682 769.078 467.873 820.649 428.203 862.964 396.467 896.022 372.664 840.484 272.167 803.458 206.05"/>
  <polygon style="fill: rgb(255, 255, 255); stroke: rgb(255, 255, 255);" points="585.273 323.738 553.537 350.185 523.123 375.309 497.999 395.144 466.262 420.269 458.328 428.203 497.999 498.287 541.636 572.337 573.372 626.553 617.009 596.139 683.126 541.924 724.118 506.221 667.258 428.203 632.877 383.243 607.753 351.507 593.207 329.027"/>
  <polygon style="stroke: rgb(255, 255, 255); fill: rgb(255, 255, 255);" points="410.724 459.939 384.278 475.807 352.542 492.997 324.772 508.865 286.425 526.056 286.425 539.279 302.293 589.528 318.161 630.52 334.029 683.414 348.574 725.729 357.831 752.175 400.146 731.018 446.427 707.216 487.42 686.058 520.478 664.901 488.742 605.396 455.684 544.568 439.816 514.155 425.27 483.741"/>
  <polygon style="fill: rgb(255, 255, 255); stroke: rgb(255, 255, 255);" points="233.531 548.535 199.15 559.114 163.447 569.693 126.422 578.949 105.264 582.916 73.528 589.528 82.785 630.52 82.785 662.256 86.752 679.447 93.363 728.373 99.975 764.076 106.587 824.904 148.902 814.325 204.44 803.746 267.912 785.234 294.359 778.622 286.425 748.208 275.846 704.571 263.945 658.289 254.689 617.297 244.11 581.594"/>
  <path d="M 589.24 399.698 L 601.054 430.556 L 637.03 431.221 L 608.356 450.958 L 618.776 482.227 L 589.24 463.567 L 559.704 482.227 L 570.124 450.958 L 541.45 431.221 L 577.426 430.556 Z" style="stroke: rgb(255, 255, 255); fill: rgb(255, 157, 0);" shape="star 589.24 445.319 50.249 45.621 0.4 5 1@7b6db6df"/>
</svg>